<svg width="20" height="20" viewBox="0 0 20 20" fill="none" xmlns="http://www.w3.org/2000/svg">
    <path fill-rule="evenodd" clip-rule="evenodd" d="M10 20C15.5228 20 20 15.5228 20 10C20 4.47715 15.5228 0 10 0C4.47715 0 0 4.47715 0 10C0 15.5228 4.47715 20 10 20ZM13.848 3.346C13.092 2.686 12.078 2.356 10.806 2.356C9.858 2.356 9.048 2.53 8.376 2.878C7.704 3.214 7.2 3.682 6.864 4.282C6.54 4.87 6.39 5.524 6.414 6.244H9.312C9.312 5.848 9.432 5.524 9.672 5.272C9.924 5.008 10.266 4.876 10.698 4.876C11.082 4.876 11.388 4.99 11.616 5.218C11.844 5.446 11.958 5.764 11.958 6.172C11.958 6.808 11.718 7.252 11.238 7.504C10.758 7.744 10.086 7.864 9.222 7.864H8.016V11.446H10.914V9.844C12.15 9.82 13.134 9.484 13.866 8.836C14.61 8.188 14.982 7.294 14.982 6.154C14.982 4.93 14.604 3.994 13.848 3.346ZM11.076 16V12.922H7.872V16H11.076Z" fill="#F1B44C"/>
</svg>
