<svg width="20" height="20" viewBox="0 0 20 20" fill="none" xmlns="http://www.w3.org/2000/svg">
    <path d="M8.33366 14.9993C9.87199 14.9993 11.2862 14.4702 12.4145 13.5927L16.0778 17.256L17.2562 16.0777L13.5928 12.4143C14.4712 11.2852 15.0003 9.87101 15.0003 8.33268C15.0003 4.65685 12.0095 1.66602 8.33366 1.66602C4.65783 1.66602 1.66699 4.65685 1.66699 8.33268C1.66699 12.0085 4.65783 14.9993 8.33366 14.9993ZM8.33366 3.33268C11.0912 3.33268 13.3337 5.57518 13.3337 8.33268C13.3337 11.0902 11.0912 13.3327 8.33366 13.3327C5.57616 13.3327 3.33366 11.0902 3.33366 8.33268C3.33366 5.57518 5.57616 3.33268 8.33366 3.33268Z" fill="white"/>
</svg>
